{"title":"Back In The Day 2014 HDRip XviD-INFERNO","uid":9469430,"size":1413296916,"categoryP":"video","categoryS":"movies","magnet":"?xt=urn:btih:ccf79f7a6dbba8e58f6c97e69bb5edf145035448&amp;dn=Back+In+The+Day+2014+HDRip+XviD-INFERNO&amp;tr=udp%3A%2F%2Ftracker.openbittorrent.com%3A80&amp;tr=udp%3A%2F%2Fopen.demonii.com%3A1337&amp;tr=udp%3A%2F%2Ftracker.coppersurfer.tk%3A6969&amp;tr=udp%3A%2F%2Fexodus.desync.com%3A6969","seeders":3,"leechers":2,"uploader":"xxxlavalxxx","files":-1,"time":1389524424,"description":"\n &lt;a href=&quot;\nhttp://www.imdb.com/title/tt2246887/&quot; rel=&quot;nofollow&quot; target=&quot;_NEW&quot;&gt;\nhttp://www.imdb.com/title/tt2246887/&lt;/a&gt;\n\n\nSometimes in order to move forward, you have to go back. And in this raunchy comedy, Jim Owens does just that when he heads home for his high school reunion. In an attempt to relive the glory days with his boys and explore an old romance, he nearly destroys his hometown and friendships. \n\nDirector: Michael Rosenbaum\nWriter: Michael Rosenbaum\nStars: Morena Baccarin, Michael Rosenbaum, Nick Swardson\nGenres: Comedy\nCountry: UK | USA\nLanguage: English\n\n\n\nFormat                                   : AVI\nFormat/Info                              : Audio Video Interleave\nFile size                                : 1.30 GiB\nDuration                                 : 1h 34mn\nOverall bit rate                         : 1 976 Kbps\nWriting library                          : VirtualDub build 35491/release\n\nVideo\nID                                       : 0\nFormat                                   : MPEG-4 Visual\nFormat profile                           : Advanced Simple@L5\nFormat settings, BVOP                    : 2\nFormat settings, QPel                    : No\nFormat settings, GMC                     : No warppoints\nFormat settings, Matrix                  : Default (H.263)\nMuxing mode                              : Packed bitstream\nCodec ID                                 : XVID\nCodec ID/Hint                            : XviD\nDuration                                 : 1h 34mn\nBit rate                                 : 1 807 Kbps\nWidth                                    : 720 pixels\nHeight                                   : 384 pixels\nDisplay aspect ratio                     : 1.85:1\nFrame rate                               : 23.976 fps\nColor space                              : YUV\nChroma subsampling                       : 4:2:0\nBit depth                                : 8 bits\nScan type                                : Progressive\nCompression mode                         : Lossy\nBits/(Pixel*Frame)                       : 0.273\nStream size                              : 1.19 GiB (91%)\nWriting library                          : XviD 64\n\nAudio\nID                                       : 1\nFormat                                   : MPEG Audio\nFormat version                           : Version 1\nFormat profile                           : Layer 3\nMode                                     : Joint stereo\nCodec ID                                 : 55\nCodec ID/Hint                            : MP3\nDuration                                 : 1h 34mn\nBit rate mode                            : Constant\nBit rate                                 : 160 Kbps\nChannel count                            : 2 channels\nSampling rate                            : 48.0 KHz\nCompression mode                         : Lossy\nStream size                              : 108 MiB (8%)\nAlignment                                : Split accross interleaves\nInterleave, duration                     : 42 ms (1.00 video frame)\nInterleave, preload duration             : 500 ms\n\n\nscreens\n &lt;a href=&quot;\nhttp://i.imgur.com/WpvZJpz.png&quot; rel=&quot;nofollow&quot; target=&quot;_NEW&quot;&gt;\nhttp://i.imgur.com/WpvZJpz.png&lt;/a&gt; &lt;a href=&quot;\nhttp://i.imgur.com/dwmonr5.png&quot; rel=&quot;nofollow&quot; target=&quot;_NEW&quot;&gt;\nhttp://i.imgur.com/dwmonr5.png&lt;/a&gt; &lt;a href=&quot;\nhttp://i.imgur.com/KXafHDy.png&quot; rel=&quot;nofollow&quot; target=&quot;_NEW&quot;&gt;\nhttp://i.imgur.com/KXafHDy.png&lt;/a&gt; &lt;a href=&quot;\nhttp://i.imgur.com/2E2CkoT.png&quot; rel=&quot;nofollow&quot; target=&quot;_NEW&quot;&gt;\nhttp://i.imgur.com/2E2CkoT.png&lt;/a&gt; &lt;a href=&quot;\nhttp://i.imgur.com/YeWEDRX.png&quot; rel=&quot;nofollow&quot; target=&quot;_NEW&quot;&gt;\nhttp://i.imgur.com/YeWEDRX.png&lt;/a&gt;\n","torrent":{"xt":"urn:btih:ccf79f7a6dbba8e58f6c97e69bb5edf145035448","amp;dn":"Back+In+The+Day+2014+HDRip+XviD-INFERNO","amp;tr":["udp%3A%2F%2Ftracker.openbittorrent.com%3A80","udp%3A%2F%2Fopen.demonii.com%3A1337","udp%3A%2F%2Ftracker.coppersurfer.tk%3A6969","udp%3A%2F%2Fexodus.desync.com%3A6969"],"infoHash":"ccf79f7a6dbba8e58f6c97e69bb5edf145035448","infoHashBuffer":{"type":"Buffer","data":[204,247,159,122,109,187,168,229,143,108,151,230,155,181,237,241,69,3,84,72]},"announce":[],"urlList":[]}}